<svg width="115" height="115" viewBox="0 0 115 115" fill="none" xmlns="http://www.w3.org/2000/svg">
<path d="M47.8809 53.9883C52.2103 47.9661 56.8815 44.9551 61.8945 44.9551C66.4844 44.9551 70.4883 46.9245 73.9062 50.8633C77.3242 54.7695 79.0332 60.1243 79.0332 66.9277C79.0332 74.8704 76.3965 81.2669 71.123 86.1172C66.5983 90.2839 61.5527 92.3672 55.9863 92.3672C53.3822 92.3672 50.7292 91.8952 48.0273 90.9512C45.3581 90.0072 42.6237 88.5911 39.8242 86.7031V40.3652C39.8242 35.2871 39.694 32.1621 39.4336 30.9902C39.2057 29.8184 38.8314 29.0208 38.3105 28.5977C37.7897 28.1745 37.1387 27.9629 36.3574 27.9629C35.446 27.9629 34.3066 28.2233 32.9395 28.7441L32.2559 27.0352L45.6836 21.5664H47.8809V53.9883ZM47.8809 57.1133V83.8711C49.541 85.4987 51.25 86.7357 53.0078 87.582C54.7982 88.3958 56.6211 88.8027 58.4766 88.8027C61.4388 88.8027 64.1895 87.1751 66.7285 83.9199C69.3001 80.6647 70.5859 75.9284 70.5859 69.7109C70.5859 63.9818 69.3001 59.5872 66.7285 56.5273C64.1895 53.4349 61.2923 51.8887 58.0371 51.8887C56.3118 51.8887 54.5866 52.3281 52.8613 53.207C51.5592 53.8581 49.8991 55.1602 47.8809 57.1133Z" fill="black"/>
<rect x="1.5" y="1.5" width="112" height="112" rx="56" stroke="black" stroke-width="3"/>
</svg>
